# xmcd
#
# Track frame offsets: 
#        150
#        18104
#        31389
#        48705
#        56578
#        69683
#        85732
#        100491
#        117589
#        132985
#        146977
#        163850
#        185318
#        200980
#
# Disc length: 2923 seconds
#
# Revision: 0
# Processed by: cddbd v1.5.2PL0 Copyright (c) Steve Scherf et al.
# Submitted via: ExactAudioCopy v0.99pb5
#
DISCID=d70b690e
DTITLE=Pam Tillis and Lorrie Morgan - Dos Divas
DYEAR=2013
DGENRE=Country
TTITLE0=I Am a Woman
TTITLE1=I know What You Did Last Night
TTITLE2=Dos Divas
TTITLE3=I'm Tired
TTITLE4=Last Night's Make Up
TTITLE5=Ain't Enough Roses
TTITLE6=Another Chance To
TTITLE7=Even The Stars
TTITLE8=That's So Cool
TTITLE9=Old Enough To Be Your Lover
TTITLE10=Next Time It Rains
TTITLE11=Envy The Sun
TTITLE12=Bless Their Hearts
TTITLE13=What Was I Thinkin'
EXTD=
EXTT0=
EXTT1=
EXTT2=
EXTT3=
EXTT4=
EXTT5=
EXTT6=
EXTT7=
EXTT8=
EXTT9=
EXTT10=
EXTT11=
EXTT12=
EXTT13=
PLAYORDER=
